<?xml version="1.0" standalone="no"?>
<!DOCTYPE svg PUBLIC "-//W3C//DTD SVG 20010904//EN"
 "http://www.w3.org/TR/2001/REC-SVG-20010904/DTD/svg10.dtd">
<svg version="1.0" xmlns="http://www.w3.org/2000/svg"
 width="1056.000000pt" height="1056.000000pt" viewBox="0 0 1056.000000 1056.000000"
 preserveAspectRatio="xMidYMid meet">
<metadata>
Created by potrace 1.14, written by Peter Selinger 2001-2017
</metadata>
<g transform="translate(0.000000,1056.000000) scale(0.100000,-0.100000)"
fill="#000000" stroke="none">
<path d="M5234 9812 c-11 -20 -36 -64 -54 -97 -18 -33 -37 -61 -42 -63 -4 -2
-8 -8 -8 -12 0 -5 -33 -66 -72 -135 -40 -69 -77 -134 -83 -143 -135 -236 -226
-390 -248 -424 -10 -16 -15 -28 -10 -28 4 0 3 -4 -2 -8 -9 -6 -123 -197 -185
-310 -21 -38 -99 -174 -110 -192 -51 -82 -110 -189 -110 -198 0 -7 -3 -12 -8
-12 -4 0 -18 -21 -32 -47 -13 -27 -38 -70 -56 -98 -17 -27 -34 -57 -37 -65 -4
-8 -20 -36 -35 -61 -28 -47 -142 -243 -178 -307 -53 -94 -67 -119 -87 -152
-43 -69 -57 -95 -68 -122 -6 -16 -15 -28 -19 -28 -4 0 -13 -12 -19 -27 -6 -16
-22 -46 -36 -68 -14 -22 -33 -56 -42 -75 -10 -19 -21 -37 -24 -40 -3 -3 -20
-30 -37 -60 -74 -132 -157 -277 -274 -479 -49 -83 -88 -155 -88 -160 0 -5 -3
-11 -8 -13 -7 -3 -97 -155 -165 -278 -17 -30 -33 -57 -36 -60 -3 -3 -15 -23
-27 -45 -11 -22 -47 -85 -79 -140 -32 -55 -63 -109 -69 -120 -6 -11 -53 -92
-104 -180 -51 -88 -99 -169 -105 -180 -6 -11 -23 -40 -38 -65 -14 -25 -63
-110 -109 -190 -46 -80 -113 -197 -150 -260 -37 -63 -114 -196 -171 -295 -57
-99 -109 -189 -116 -200 -7 -11 -15 -27 -19 -35 -4 -8 -25 -43 -46 -78 -21
-34 -38 -64 -38 -67 0 -2 -13 -25 -29 -52 -69 -114 -145 -248 -141 -248 3 0
-1 -7 -8 -15 -20 -24 -92 -148 -92 -159 0 -6 -4 -11 -10 -11 -5 0 -10 -4 -10
-9 0 -5 -20 -44 -45 -85 -25 -42 -45 -81 -45 -86 0 -5 -6 -15 -13 -22 -7 -7
-30 -44 -51 -83 -21 -38 -46 -81 -55 -95 -29 -45 -40 -65 -59 -100 -10 -19
-58 -102 -105 -184 -48 -82 -87 -153 -87 -158 0 -4 -4 -8 -10 -8 -5 0 -10 -9
-10 -20 0 -11 -4 -20 -10 -20 -5 0 -12 -11 -16 -25 -3 -14 -9 -25 -13 -25 -3
0 -19 -26 -36 -58 -16 -31 -33 -59 -36 -62 -5 -5 -19 -29 -84 -145 -27 -49
-81 -142 -123 -213 -18 -29 -32 -55 -32 -58 0 -2 -12 -23 -27 -47 -15 -23 -34
-55 -43 -72 -9 -16 -56 -99 -105 -183 -88 -150 -103 -175 -160 -277 -15 -27
-37 -62 -47 -78 -11 -15 -16 -27 -11 -27 4 0 3 -4 -3 -8 -6 -4 -20 -23 -30
-42 -20 -36 -168 -293 -184 -320 -42 -66 -140 -243 -140 -251 0 -5 -3 -9 -8
-9 -4 0 -13 -15 -21 -33 -8 -17 -17 -34 -21 -37 -15 -12 -70 -122 -70 -140 l0
-20 5280 0 c4918 0 5280 1 5280 17 0 22 -32 93 -42 93 -4 0 -8 4 -8 9 0 8 -80
151 -90 161 -3 3 -15 23 -27 45 -30 57 -53 98 -113 200 -29 50 -64 110 -78
134 -14 25 -38 68 -55 95 -33 57 -60 104 -89 156 -11 19 -28 49 -39 65 -10 17
-22 37 -26 45 -4 8 -20 38 -36 65 -37 62 -63 107 -95 165 -13 25 -31 53 -40
63 -8 9 -11 17 -7 17 4 0 1 8 -7 18 -8 9 -36 55 -63 102 -26 47 -73 128 -104
180 -30 52 -55 98 -54 101 1 4 -7 15 -17 24 -11 10 -20 22 -20 27 0 9 -164
293 -182 316 -6 6 -7 12 -2 12 5 0 4 4 -2 8 -6 4 -24 30 -38 57 -15 28 -35 64
-45 80 -10 17 -61 104 -113 195 -129 224 -157 272 -168 290 -5 8 -21 38 -36
65 -14 28 -32 57 -40 66 -8 8 -14 18 -14 21 0 4 -27 53 -61 110 -34 57 -65
113 -70 126 -5 12 -14 22 -20 22 -7 0 -10 3 -6 6 3 3 -14 39 -39 79 -24 40
-44 78 -44 84 0 6 -3 11 -7 11 -5 0 -13 10 -19 23 -24 50 -78 143 -90 158 -8
8 -14 18 -14 21 0 6 -258 456 -280 488 -6 8 -13 21 -17 29 -3 8 -35 63 -70
123 -35 60 -63 113 -63 118 0 4 -4 10 -8 12 -7 3 -121 198 -131 223 -2 5 -10
18 -19 28 -8 9 -11 17 -6 17 5 0 4 4 -2 8 -7 4 -23 27 -36 52 -13 25 -36 64
-51 87 -15 24 -27 45 -27 48 0 2 -18 34 -40 70 -22 36 -40 70 -40 75 0 6 -5
10 -11 10 -5 0 -8 4 -5 9 3 5 -1 14 -9 21 -8 7 -15 19 -15 26 0 8 -3 14 -7 14
-5 0 -13 10 -19 23 -23 49 -59 112 -66 115 -5 2 -8 9 -8 17 0 7 -7 18 -15 25
-9 7 -13 15 -11 18 3 3 -3 17 -13 31 -28 39 -71 114 -78 134 -3 9 -9 17 -14
17 -5 0 -9 5 -9 10 0 6 -40 79 -89 163 -106 181 -126 216 -188 325 -27 46 -52
91 -58 100 -5 10 -38 67 -73 127 -35 61 -67 117 -73 125 -16 27 -95 165 -103
180 -4 8 -18 33 -32 55 -13 22 -30 52 -36 68 -7 15 -16 27 -20 27 -4 0 -8 4
-8 9 0 8 -62 121 -100 181 -26 43 -74 126 -75 130 0 3 -12 23 -26 45 -14 22
-37 60 -51 85 -75 135 -92 165 -97 170 -4 3 -14 21 -25 40 -26 49 -51 92 -107
188 -27 45 -49 85 -49 88 0 3 -16 30 -35 60 -19 30 -35 59 -35 64 0 6 -3 10
-8 10 -4 0 -18 25 -32 55 -14 30 -28 55 -32 55 -5 0 -8 7 -8 15 0 8 -4 15 -8
15 -5 0 -14 16 -22 35 -8 19 -17 35 -22 35 -4 0 -8 4 -8 9 0 5 -44 84 -98 177
-54 93 -101 176 -105 184 -4 8 -16 29 -27 45 -10 17 -25 41 -33 55 -57 102
-71 126 -77 135 -4 6 -19 30 -32 55 -38 67 -138 242 -154 267 -8 13 -15 26
-15 30 -1 5 -14 27 -30 50 -16 23 -29 46 -29 52 0 6 -4 11 -8 11 -5 0 -14 16
-22 35 -8 19 -17 35 -22 35 -4 0 -8 5 -8 10 0 6 -19 44 -42 85 -35 61 -47 74
-68 75 -19 0 -30 -10 -46 -38z m656 -1138 c0 -7 -65 -126 -145 -264 -80 -138
-145 -256 -145 -261 0 -5 -3 -9 -7 -9 -5 0 -13 -10 -19 -23 -5 -12 -45 -83
-89 -157 -43 -74 -87 -151 -98 -170 -64 -114 -101 -170 -110 -167 -10 3 -69
98 -101 162 -19 38 -59 106 -97 166 -16 25 -29 51 -29 57 0 7 -4 12 -10 12 -5
0 -10 4 -10 9 0 12 -83 155 -92 159 -5 2 -8 8 -8 13 0 5 -49 95 -110 199 -60
104 -110 194 -110 200 0 5 -4 10 -8 10 -10 0 -32 44 -32 64 0 10 124 12 610
12 478 0 610 -2 610 -12z m648 -1133 c20 -2 14 -22 -22 -83 -19 -31 -46 -76
-59 -100 -149 -263 -244 -425 -254 -436 -7 -7 -13 -19 -13 -27 0 -7 -3 -15 -7
-17 -5 -1 -21 -29 -38 -60 -16 -32 -34 -58 -39 -58 -5 0 -6 -3 -3 -6 4 -4 -1
-19 -11 -33 -28 -44 -42 -65 -52 -86 -6 -11 -24 -42 -41 -70 -16 -27 -33 -58
-36 -67 -3 -10 -9 -18 -14 -18 -5 0 -9 -9 -9 -19 0 -11 -4 -21 -8 -23 -4 -1
-41 -61 -82 -133 -41 -71 -77 -132 -80 -135 -3 -3 -18 -30 -34 -60 -16 -30
-32 -57 -35 -60 -3 -3 -15 -23 -26 -45 -11 -22 -23 -42 -26 -45 -3 -3 -8 -9
-10 -15 -4 -11 -71 -127 -120 -210 -16 -27 -34 -59 -39 -70 -6 -11 -14 -27
-20 -35 -29 -43 -100 -172 -100 -180 0 -6 -3 -10 -7 -10 -5 0 -19 -23 -32 -50
-26 -51 -53 -65 -65 -32 -9 27 -58 106 -70 114 -6 4 -8 8 -4 8 4 0 -6 21 -22
47 -17 26 -30 52 -30 59 0 7 -4 14 -8 16 -5 2 -41 62 -82 133 -40 72 -82 142
-92 158 -11 15 -16 27 -11 27 4 0 3 4 -3 8 -5 4 -22 27 -36 52 -83 148 -112
195 -119 198 -5 2 -9 12 -9 22 0 9 -7 23 -15 30 -8 7 -15 17 -15 22 0 6 -8 22
-19 36 -10 15 -29 47 -43 72 -35 63 -60 106 -97 168 -17 29 -31 57 -31 62 0 6
-4 10 -10 10 -5 0 -10 5 -10 11 0 6 -23 49 -52 97 -28 48 -65 112 -81 142 -17
30 -33 57 -36 60 -3 3 -13 19 -21 35 -8 17 -27 49 -42 72 -15 23 -28 44 -28
48 0 10 -111 198 -129 219 -9 10 -14 20 -12 23 2 3 -1 12 -8 22 -48 69 -118
202 -108 206 7 2 18 5 25 7 11 3 2469 2 2500 -1z m-3140 -1145 c6 -4 12 -4 12
1 0 10 133 8 149 -1 6 -4 11 -4 11 1 0 10 131 10 148 -1 6 -4 12 -4 12 1 0 10
131 10 148 -1 6 -4 12 -4 12 1 0 10 131 10 148 -1 6 -4 12 -4 12 1 0 6 74 7
285 3 6 0 36 1 68 3 31 1 57 -1 57 -6 0 -4 6 -5 13 0 16 10 38 10 61 0 12 -6
16 -6 12 2 -5 7 -1 9 8 5 9 -3 16 -10 16 -15 0 -9 -34 -75 -69 -134 -10 -16
-27 -46 -38 -65 -11 -19 -44 -75 -72 -123 -28 -49 -51 -93 -51 -98 0 -5 -4 -9
-10 -9 -5 0 -10 -4 -10 -9 0 -7 -64 -122 -100 -181 -13 -21 -93 -161 -131
-227 -12 -21 -36 -63 -55 -94 -19 -31 -34 -59 -34 -63 0 -3 -8 -15 -17 -26
-19 -22 -43 -27 -43 -9 0 6 -8 23 -19 37 -10 15 -31 50 -46 77 -15 28 -60 107
-101 177 -41 69 -74 131 -74 136 0 6 -4 12 -8 14 -5 2 -23 30 -42 63 -18 33
-89 156 -157 272 -68 117 -123 217 -123 222 0 5 -6 14 -14 21 -30 24 7 48 42
26z m2857 4 c6 0 36 1 68 3 31 1 57 -1 57 -6 0 -4 5 -5 12 -1 17 11 108 11
108 1 0 -5 5 -5 12 -1 17 11 108 11 108 1 0 -5 5 -5 12 -1 15 10 111 9 127 0
6 -4 11 -4 11 1 0 10 131 10 148 -1 6 -4 12 -4 12 1 0 10 221 10 237 0 6 -4
13 -3 15 3 2 6 8 6 18 0 13 -8 11 -18 -15 -67 -16 -31 -41 -73 -54 -93 -12
-19 -27 -44 -32 -55 -6 -11 -15 -29 -22 -40 -7 -11 -32 -54 -55 -95 -24 -41
-47 -82 -52 -90 -16 -25 -262 -453 -279 -485 -9 -16 -18 -32 -21 -35 -3 -3
-11 -15 -17 -27 -7 -13 -19 -33 -25 -45 -27 -49 -28 -48 -106 87 -19 33 -48
85 -65 115 -17 30 -33 57 -37 60 -4 3 -13 20 -21 38 -8 17 -17 32 -21 32 -5 0
-8 4 -8 10 0 5 -19 42 -43 82 -24 40 -46 80 -50 88 -4 8 -18 33 -32 55 -14 22
-28 47 -32 55 -3 8 -13 23 -21 33 -8 9 -12 17 -8 17 4 0 2 6 -4 13 -16 19
-120 198 -120 207 0 5 -6 15 -14 22 -14 15 -56 96 -56 109 0 12 27 14 144 12
61 -2 116 -3 121 -3z m-3429 -1140 c124 0 143 0 172 0 115 -1 176 -2 220 -1
28 1 59 1 67 1 22 0 42 0 125 -1 41 0 99 0 128 0 28 1 59 1 67 1 22 0 42 0
125 -1 41 0 99 0 128 0 28 1 59 1 67 1 22 0 42 0 125 -1 41 0 99 0 128 0 28 1
59 1 67 1 22 0 42 0 125 -1 41 0 99 0 128 0 28 1 59 1 67 1 22 0 42 0 125 -1
41 0 99 0 128 0 54 1 73 1 95 0 6 0 21 0 32 1 11 1 106 2 210 1 185 0 211 0
238 -2 6 0 21 0 32 1 19 2 861 2 898 1 9 -1 23 -1 30 -2 6 0 21 0 32 1 19 2
861 2 898 1 9 -1 23 -1 30 -2 6 0 21 0 32 1 11 1 135 1 276 0 217 -1 256 -3
256 -15 0 -8 -3 -15 -7 -15 -4 0 -17 -22 -30 -50 -13 -27 -27 -50 -31 -50 -4
0 -12 -12 -18 -27 -10 -27 -51 -103 -61 -113 -3 -3 -10 -14 -16 -25 -6 -11
-55 -96 -109 -190 -54 -93 -105 -183 -113 -200 -9 -16 -18 -32 -21 -35 -3 -3
-11 -14 -17 -25 -6 -11 -55 -96 -109 -190 -54 -93 -139 -240 -188 -325 -49
-85 -98 -171 -110 -190 -11 -19 -27 -48 -35 -65 -9 -16 -18 -32 -22 -35 -3 -3
-53 -88 -110 -189 -58 -101 -116 -202 -129 -225 -13 -22 -32 -54 -41 -71 -10
-16 -42 -73 -72 -125 -30 -52 -81 -140 -113 -195 -59 -101 -78 -135 -116 -202
-12 -21 -25 -42 -29 -48 -4 -5 -19 -30 -32 -55 -14 -25 -48 -85 -77 -133 -28
-49 -51 -93 -51 -98 0 -5 -4 -9 -10 -9 -5 0 -10 -4 -10 -9 0 -7 -51 -99 -100
-181 -15 -25 -146 -252 -169 -292 -41 -73 -59 -104 -105 -181 -25 -43 -46 -82
-46 -87 0 -5 -3 -10 -7 -12 -5 -2 -16 -19 -27 -38 -57 -106 -80 -145 -88 -148
-4 -2 -8 -7 -8 -11 0 -7 -70 -134 -115 -209 -5 -9 -25 -44 -44 -77 -19 -33
-41 -68 -49 -77 -8 -10 -12 -18 -8 -18 4 0 -1 -12 -12 -27 -11 -16 -28 -44
-39 -63 -45 -83 -98 -170 -103 -170 -7 0 -110 177 -110 190 0 5 -4 10 -9 10
-5 0 -11 8 -14 18 -4 9 -17 35 -30 57 -66 108 -167 288 -167 296 0 5 -4 9 -10
9 -5 0 -10 4 -10 9 0 4 -46 86 -102 182 -112 193 -147 254 -180 317 -12 23
-26 42 -30 42 -4 0 -8 5 -8 10 0 6 -34 68 -75 139 -41 71 -75 134 -75 140 0 6
-3 11 -8 11 -4 0 -16 17 -27 38 -11 20 -41 73 -66 117 -26 44 -56 96 -67 115
-11 19 -61 107 -112 195 -100 172 -306 528 -352 610 -38 66 -47 81 -83 140
-17 28 -34 58 -38 67 -3 10 -21 42 -40 70 -18 29 -41 69 -50 88 -19 38 -39 72
-47 80 -9 9 -51 85 -57 103 -3 9 -9 17 -14 17 -5 0 -9 4 -9 10 0 5 -32 64 -71
132 -40 67 -80 137 -90 155 -20 34 -46 80 -78 136 -10 17 -50 87 -90 154 -39
68 -71 126 -71 131 0 5 -9 17 -20 27 -11 10 -18 20 -15 23 3 3 -1 12 -9 21 -8
9 -26 39 -40 66 -15 28 -31 57 -37 65 -34 55 -139 243 -139 251 0 5 -4 9 -10
9 -5 0 -10 5 -10 10 0 6 -11 27 -23 48 -23 36 -67 112 -93 161 -13 24 -10 46
5 36 5 -2 62 -5 127 -5z m424 -1157 c0 -12 -58 -123 -69 -133 -3 -3 -16 -23
-28 -45 -11 -22 -30 -56 -41 -75 -12 -19 -42 -73 -68 -120 -26 -47 -51 -86
-56 -88 -4 -2 -8 -10 -8 -17 0 -8 -7 -21 -16 -29 -8 -9 -13 -16 -10 -16 3 0
-10 -25 -29 -55 -19 -30 -35 -57 -35 -60 0 -4 -8 -19 -19 -33 -10 -15 -33 -54
-51 -87 -18 -33 -38 -63 -44 -67 -6 -4 -7 -8 -3 -8 4 0 -7 -24 -26 -52 -18
-29 -36 -60 -40 -68 -16 -36 -54 -94 -64 -97 -10 -4 -133 196 -133 217 0 5 -4
10 -10 10 -5 0 -10 6 -10 14 0 7 -7 19 -15 26 -8 7 -13 16 -10 20 2 4 -5 16
-15 28 -11 12 -20 25 -20 29 0 5 -11 25 -25 45 -14 20 -25 43 -25 51 0 8 -7
17 -15 21 -8 3 -15 10 -15 16 0 6 -40 79 -89 163 -49 84 -98 168 -109 187 -11
19 -43 75 -71 123 -54 94 -58 103 -40 109 6 2 281 4 610 4 466 0 599 -3 599
-13z m5271 6 c14 -9 10 -20 -40 -104 -16 -27 -36 -61 -44 -75 -13 -23 -148
-257 -167 -290 -75 -125 -93 -156 -101 -174 -5 -12 -15 -30 -21 -41 -26 -40
-62 -102 -91 -155 -17 -30 -33 -57 -36 -60 -3 -3 -14 -21 -25 -40 -36 -67 -58
-105 -66 -114 -11 -11 -30 8 -50 49 -8 17 -17 32 -20 35 -3 3 -10 14 -16 25
-6 11 -55 97 -109 190 -126 218 -129 223 -151 265 -11 19 -22 37 -25 40 -3 3
-8 12 -12 20 -4 8 -20 38 -37 65 -17 28 -33 58 -37 68 -3 9 -8 17 -12 17 -4 0
-13 16 -21 35 -8 19 -17 35 -22 35 -4 0 -8 4 -8 10 0 5 -22 47 -50 94 -27 47
-50 91 -50 99 0 11 95 13 599 14 330 0 605 -4 612 -8z m-4618 -1138 c16 -2 4
-29 -69 -155 -42 -72 -84 -145 -94 -161 -9 -17 -49 -86 -89 -153 -39 -68 -71
-127 -71 -132 0 -6 -4 -10 -10 -10 -5 0 -10 -4 -10 -10 0 -5 -20 -44 -45 -86
-25 -41 -45 -77 -45 -80 0 -2 -15 -27 -33 -56 -19 -29 -37 -60 -40 -68 -4 -8
-21 -37 -37 -65 -17 -27 -34 -57 -37 -65 -4 -8 -9 -17 -12 -20 -4 -3 -12 -16
-19 -30 -14 -28 -43 -78 -108 -189 -24 -40 -44 -77 -44 -82 0 -5 -4 -9 -10 -9
-5 0 -10 -5 -10 -10 0 -10 -88 -169 -100 -180 -3 -3 -14 -23 -25 -45 -11 -22
-22 -42 -25 -45 -7 -6 -174 -298 -198 -345 -9 -16 -18 -32 -21 -35 -3 -3 -13
-18 -21 -35 -8 -16 -27 -49 -42 -71 -16 -23 -28 -46 -28 -52 0 -23 -28 -19
-41 6 -8 15 -16 29 -19 32 -3 3 -10 14 -16 25 -6 11 -70 123 -143 248 -72 126
-131 232 -131 238 0 5 -4 9 -9 9 -5 0 -15 16 -22 35 -7 19 -17 35 -21 35 -4 0
-8 5 -8 10 0 6 -12 29 -26 51 -14 23 -37 62 -51 87 -15 26 -33 59 -42 74 -21
35 -119 204 -143 246 -10 17 -26 47 -37 65 -10 17 -27 48 -37 67 -11 19 -25
40 -31 48 -7 7 -13 17 -13 22 0 5 -18 38 -40 72 -22 35 -40 69 -40 76 0 6 -4
12 -10 12 -5 0 -10 5 -10 11 0 6 -9 23 -19 38 -11 15 -21 34 -23 41 -2 8 -11
23 -20 34 -10 11 -18 26 -18 33 0 7 -4 13 -8 13 -5 0 -14 16 -22 35 -8 19 -17
35 -22 35 -4 0 -8 5 -8 11 0 6 -23 49 -51 97 -29 48 -63 107 -77 132 -13 25
-48 83 -76 130 -48 81 -59 107 -51 119 2 5 2501 7 2528 2z m5287 -7 c8 -8 7
-14 -5 -24 -8 -7 -15 -16 -15 -20 0 -4 -30 -59 -66 -121 -37 -63 -78 -134 -92
-159 -14 -25 -33 -57 -43 -72 -11 -14 -19 -29 -19 -32 0 -3 -60 -108 -133
-233 -73 -126 -136 -235 -140 -243 -4 -8 -17 -31 -28 -50 -82 -137 -129 -220
-129 -229 0 -6 -4 -11 -8 -11 -5 0 -16 -17 -26 -37 -10 -21 -33 -64 -52 -95
-19 -32 -34 -60 -34 -64 1 -4 -2 -10 -7 -13 -5 -3 -53 -82 -107 -176 -54 -93
-102 -177 -107 -185 -45 -75 -139 -244 -139 -251 0 -5 -3 -9 -8 -9 -4 0 -14
-14 -21 -32 -8 -18 -27 -51 -43 -74 -15 -23 -28 -47 -28 -54 0 -20 -34 -6 -45
18 -5 12 -13 22 -17 22 -5 0 -8 4 -8 9 0 9 -119 221 -130 231 -3 3 -10 14 -16
25 -46 87 -60 111 -64 115 -3 3 -14 23 -25 45 -11 22 -23 42 -26 45 -3 3 -18
28 -33 55 -16 28 -40 70 -54 95 -13 25 -34 57 -44 73 -11 15 -16 27 -11 27 4
0 4 4 -2 8 -5 4 -16 18 -24 32 -8 14 -46 79 -84 145 -38 66 -81 140 -95 165
-13 25 -28 50 -32 55 -4 6 -19 30 -32 55 -78 138 -153 266 -161 271 -4 3 -9
12 -11 20 -2 12 -64 122 -147 262 -16 26 -29 51 -29 56 0 5 -3 11 -7 13 -8 3
-28 37 -66 111 -10 20 -23 37 -28 37 -5 0 -9 8 -9 19 0 10 -7 24 -15 31 -8 7
-15 16 -15 21 0 4 -14 30 -31 58 -17 28 -29 56 -26 63 6 17 2520 19 2537 2z
m-7292 -1133 c18 -1 32 -6 32 -13 0 -7 -21 -49 -46 -93 -26 -44 -58 -100 -72
-125 -14 -25 -43 -73 -64 -108 -21 -34 -38 -64 -38 -67 0 -4 -37 -68 -78 -135
-9 -14 -15 -27 -15 -30 0 -3 -8 -17 -18 -31 -27 -38 -129 -220 -129 -230 0 -5
-4 -9 -8 -9 -4 0 -21 -27 -37 -60 -17 -33 -33 -60 -37 -60 -5 0 -8 -5 -8 -10
0 -6 -13 -30 -28 -55 -27 -43 -29 -44 -44 -28 -8 10 -18 25 -22 33 -4 8 -12
24 -19 35 -50 82 -87 147 -87 154 0 4 -5 12 -12 19 -11 11 -52 79 -96 162 -18
34 -177 307 -221 380 -11 19 -25 44 -31 55 -6 11 -24 43 -40 70 -35 60 -67
116 -71 130 -2 5 9 12 25 15 23 4 1001 5 1164 1z m2651 0 c20 -1 22 -4 16 -28
-3 -15 -10 -30 -14 -33 -3 -3 -42 -68 -86 -144 -44 -77 -95 -164 -113 -195
-18 -31 -38 -67 -44 -81 -7 -14 -15 -27 -19 -30 -3 -3 -8 -12 -12 -20 -3 -8
-19 -36 -34 -62 -93 -157 -163 -282 -163 -289 0 -5 -4 -9 -8 -9 -5 0 -14 -16
-22 -35 -8 -19 -17 -35 -22 -35 -4 0 -8 -5 -8 -10 0 -18 -50 -90 -63 -90 -6 0
-23 21 -36 48 -14 26 -32 58 -42 72 -19 29 -67 114 -83 147 -6 13 -14 23 -18
23 -5 0 -8 5 -8 11 0 6 -9 23 -19 37 -10 15 -19 30 -20 35 0 4 -7 17 -15 30
-29 46 -266 459 -266 463 0 2 -15 27 -34 56 -42 68 -69 125 -63 135 4 6 1026
9 1196 4z m2659 -5 c4 -4 -5 -28 -19 -54 -14 -26 -37 -67 -50 -92 -13 -25 -26
-47 -29 -50 -3 -3 -27 -43 -54 -89 -51 -90 -54 -95 -135 -236 -28 -49 -55 -97
-61 -105 -26 -43 -115 -199 -129 -227 -8 -18 -19 -33 -23 -33 -4 0 -8 -4 -8
-9 0 -12 -68 -129 -88 -154 -17 -20 -19 -18 -64 63 -23 41 -53 93 -122 210
-15 25 -29 53 -33 63 -3 9 -9 17 -14 17 -5 0 -9 4 -9 9 0 5 -32 65 -71 133
-39 67 -79 137 -89 153 -9 17 -43 75 -75 130 -120 207 -147 256 -142 268 3 9
146 12 606 11 331 -1 605 -5 609 -8z m2625 5 c25 -1 22 -15 -29 -105 -50 -87
-48 -84 -148 -255 -36 -62 -66 -118 -66 -122 0 -5 -4 -9 -8 -9 -4 0 -13 -12
-19 -27 -7 -16 -24 -49 -40 -75 -42 -69 -133 -230 -133 -235 0 -2 -5 -9 -10
-16 -17 -20 -120 -198 -120 -208 0 -13 -26 -11 -38 4 -14 17 -70 116 -88 155
-8 17 -19 32 -24 32 -6 0 -10 7 -10 15 0 14 -26 63 -40 75 -3 3 -14 21 -23 40
-10 19 -27 49 -37 65 -11 17 -23 37 -26 45 -4 8 -14 23 -22 33 -8 9 -12 17 -7
17 4 0 3 6 -3 13 -12 15 -138 230 -209 357 -8 14 -23 39 -33 55 -11 17 -24 41
-30 54 -6 13 -19 36 -30 51 -11 16 -15 31 -10 36 7 7 1042 11 1203 5z"/>
</g>
</svg>
