<svg xmlns="http://www.w3.org/2000/svg" id="Layer_1" data-name="Layer 1" viewBox="121.56999206542969 604.7899780273438 246.66001892089844 213.58001708984375" class="h-6"><defs><style>
            .cls-1{fill:#84cc16;}
            .cls-2{fill:none;stroke:#84cc16;stroke-linecap:round;stroke-linejoin:round;}
          </style></defs><path d="M260.32 631.48h-30.83l15.41-26.69 15.42 26.69zM244.9 658.19h-30.83l15.42-26.7 15.41 26.7zM275.74 658.19H244.9l15.42-26.7 15.42 26.7z" class="cls-1"></path><path d="M229.49 684.89h-30.84l15.42-26.7 15.42 26.7z" class="cls-1"></path><path d="M214.07 711.57h-30.83l15.41-26.69 15.42 26.69zM244.9 711.57h-30.83l15.42-26.69 15.41 26.69zM291.15 684.89h-30.83l15.42-26.7 15.41 26.7z" class="cls-1"></path><path d="M275.74 711.57H244.9l15.42-26.69 15.42 26.69zM306.57 711.57h-30.83l15.41-26.69 15.42 26.69zM198.65 738.27h-30.83l15.42-26.69 15.41 26.69z" class="cls-1"></path><path d="M183.24 764.96H152.4l15.42-26.7 15.42 26.7zM214.07 764.96h-30.83l15.41-26.7 15.42 26.7zM167.82 791.66h-30.83l15.41-26.69 15.42 26.69z" class="cls-1"></path><path d="M152.4 818.35h-30.83l15.42-26.7 15.41 26.7zM183.24 818.35H152.4l15.42-26.7 15.42 26.7zM229.49 791.66h-30.84l15.42-26.69 15.42 26.69z" class="cls-1"></path><path d="M214.07 818.35h-30.83l15.41-26.7 15.42 26.7zM244.9 818.35h-30.83l15.42-26.7 15.41 26.7zM291.15 791.66h-30.83l15.42-26.69 15.41 26.69z" class="cls-1"></path><path d="M275.74 818.35H244.9l15.42-26.7 15.42 26.7zM306.57 818.35h-30.83l15.41-26.7 15.42 26.7zM352.82 791.66h-30.84l15.42-26.69 15.42 26.69z" class="cls-1"></path><path d="M337.4 818.35h-30.83l15.41-26.7 15.42 26.7z" class="cls-1"></path><path d="M368.23 818.35H337.4l15.42-26.7 15.41 26.7zM321.98 738.28h-30.83l15.42-26.69 15.41 26.69z" class="cls-1"></path><path d="M306.57 764.97h-30.83l15.41-26.7 15.42 26.7z" class="cls-1"></path><path d="M337.4 764.97h-30.83l15.41-26.7 15.42 26.7z" class="cls-1"></path><path d="m244.9 818.37 61.67-106.79 61.66 106.79H244.9zM121.57 818.37l61.67-106.79 61.66 106.79H121.57z" class="cls-2"></path><path d="M277.19 765H336a.84.84 0 0 1 .72 1.26l-29.38 50.88a.84.84 0 0 1-1.45 0l-29.38-50.88a.84.84 0 0 1 .68-1.26ZM292.61 738.29h27.92a.83.83 0 0 1 .73 1.25l-14 24.18a.84.84 0 0 1-1.45 0l-14-24.18a.83.83 0 0 1 .8-1.25ZM323.44 791.67h27.92a.84.84 0 0 1 .73 1.26l-14 24.18a.84.84 0 0 1-1.46 0l-14-24.18a.84.84 0 0 1 .81-1.26ZM261.77 791.67h27.93a.84.84 0 0 1 .72 1.26l-14 24.18a.84.84 0 0 1-1.45 0l-14-24.18a.84.84 0 0 1 .8-1.26ZM153.86 765h58.75a.84.84 0 0 1 .73 1.26L184 817.12a.84.84 0 0 1-1.45 0l-29.38-50.88a.84.84 0 0 1 .69-1.24ZM169.27 738.29h27.93a.84.84 0 0 1 .73 1.26l-14 24.18a.84.84 0 0 1-1.45 0l-14-24.18a.84.84 0 0 1 .79-1.26ZM200.11 791.68H228a.84.84 0 0 1 .73 1.26l-14 24.18a.85.85 0 0 1-1.46 0l-14-24.18a.84.84 0 0 1 .84-1.26ZM138.44 791.68h27.93a.84.84 0 0 1 .72 1.26l-14 24.18a.84.84 0 0 1-1.45 0l-14-24.18a.84.84 0 0 1 .8-1.26ZM183.24 711.59 244.9 604.8l61.67 106.79H183.24z" class="cls-2"></path><path d="M215.52 658.2h58.76a.84.84 0 0 1 .73 1.26l-29.38 50.87a.84.84 0 0 1-1.46 0l-29.37-50.87a.84.84 0 0 1 .72-1.26ZM230.94 631.51h27.92a.84.84 0 0 1 .73 1.26l-14 24.17a.84.84 0 0 1-1.46 0l-14-24.17a.84.84 0 0 1 .81-1.26ZM261.77 684.89h27.93a.84.84 0 0 1 .72 1.26l-14 24.18a.84.84 0 0 1-1.45 0l-14-24.18a.84.84 0 0 1 .8-1.26ZM200.11 684.89H228a.84.84 0 0 1 .73 1.26l-14 24.18a.84.84 0 0 1-1.46 0l-14-24.18a.84.84 0 0 1 .84-1.26Z" class="cls-2"></path></svg>