<?xml version="1.0" encoding="utf-8"?>
<svg id="Layer_1" data-name="Layer 1" viewBox="0 0 1500 1500" xmlns="http://www.w3.org/2000/svg">
  <defs>
    <style>.cls-1{fill:#e7ebe0;}.cls-2{fill:none;stroke:#e7ebe0;stroke-linecap:round;stroke-linejoin:round;stroke-width:2px;}</style>
  </defs>
  <polygon class="cls-1" points="782.98 567.75 717.02 567.75 750 510.64 782.98 567.75" style="fill: rgb(132, 204, 22);"/>
  <polygon class="cls-1" points="750 624.88 684.04 624.88 717.02 567.77 750 624.88" style="fill: rgb(132, 204, 22);"/>
  <polygon class="cls-1" points="815.96 624.88 750 624.88 782.98 567.77 815.96 624.88" style="fill: rgb(132, 204, 22);"/>
  <polygon class="cls-1" points="717.02 682 651.06 682 684.04 624.89 717.02 682" style="fill: rgb(132, 204, 22);"/>
  <polygon class="cls-1" points="684.04 739.09 618.08 739.09 651.06 681.98 684.04 739.09" style="fill: rgb(132, 204, 22);"/>
  <polygon class="cls-1" points="750 739.09 684.04 739.09 717.02 681.98 750 739.09" style="fill: rgb(132, 204, 22);"/>
  <polygon class="cls-1" points="848.94 682 782.98 682 815.96 624.89 848.94 682" style="fill: rgb(132, 204, 22);"/>
  <polygon class="cls-1" points="815.96 739.09 750 739.09 782.98 681.98 815.96 739.09" style="fill: rgb(132, 204, 22);"/>
  <polygon class="cls-1" points="881.92 739.09 815.96 739.09 848.94 681.98 881.92 739.09" style="fill: rgb(132, 204, 22);"/>
  <polygon class="cls-1" points="651.06 796.21 585.1 796.21 618.08 739.1 651.06 796.21" style="fill: rgb(132, 204, 22);"/>
  <polygon class="cls-1" points="618.08 853.3 552.12 853.3 585.1 796.18 618.08 853.3" style="fill: rgb(132, 204, 22);"/>
  <polygon class="cls-1" points="684.04 853.3 618.08 853.3 651.06 796.18 684.04 853.3" style="fill: rgb(132, 204, 22);"/>
  <polygon class="cls-1" points="585.1 910.42 519.14 910.42 552.12 853.31 585.1 910.42" style="fill: rgb(132, 204, 22);"/>
  <polygon class="cls-1" points="552.12 967.5 486.16 967.5 519.14 910.39 552.12 967.5" style="fill: rgb(132, 204, 22);"/>
  <polygon class="cls-1" points="618.08 967.5 552.12 967.5 585.1 910.39 618.08 967.5" style="fill: rgb(132, 204, 22);"/>
  <polygon class="cls-1" points="717.02 910.42 651.06 910.42 684.04 853.31 717.02 910.42" style="fill: rgb(132, 204, 22);"/>
  <polygon class="cls-1" points="684.04 967.5 618.08 967.5 651.06 910.39 684.04 967.5" style="fill: rgb(132, 204, 22);"/>
  <polygon class="cls-1" points="750 967.5 684.04 967.5 717.02 910.39 750 967.5" style="fill: rgb(132, 204, 22);"/>
  <polygon class="cls-1" points="848.94 910.42 782.98 910.42 815.96 853.31 848.94 910.42" style="fill: rgb(132, 204, 22);"/>
  <polygon class="cls-1" points="815.96 967.5 750 967.5 782.98 910.39 815.96 967.5" style="fill: rgb(132, 204, 22);"/>
  <polygon class="cls-1" points="881.92 967.5 815.96 967.5 848.94 910.39 881.92 967.5" style="fill: rgb(132, 204, 22);"/>
  <polygon class="cls-1" points="980.86 910.42 914.9 910.42 947.88 853.31 980.86 910.42" style="fill: rgb(132, 204, 22);"/>
  <polygon class="cls-1" points="947.88 967.5 881.92 967.5 914.9 910.39 947.88 967.5" style="fill: rgb(132, 204, 22);"/>
  <polygon class="cls-1" points="1013.84 967.5 947.88 967.5 980.86 910.39 1013.84 967.5" style="fill: rgb(132, 204, 22);"/>
  <polygon class="cls-1" points="914.9 796.23 848.94 796.23 881.92 739.12 914.9 796.23" style="fill: rgb(132, 204, 22);"/>
  <polygon class="cls-1" points="881.92 853.31 815.96 853.31 848.94 796.2 881.92 853.31" style="fill: rgb(132, 204, 22);"/>
  <polygon class="cls-1" points="947.88 853.31 881.92 853.31 914.9 796.2 947.88 853.31" style="fill: rgb(132, 204, 22);"/>
  <polygon class="cls-2" points="750 967.55 881.92 739.11 1013.84 967.55 750 967.55" style="stroke: rgb(132, 204, 22);"/>
  <polygon class="cls-2" points="486.16 967.55 618.08 739.11 750 967.55 486.16 967.55" style="stroke: rgb(132, 204, 22);"/>
  <path class="cls-2" d="M819.07,853.33h125.7a1.8,1.8,0,0,1,1.56,2.69L883.48,964.86a1.79,1.79,0,0,1-3.11,0L817.52,856A1.79,1.79,0,0,1,819.07,853.33Z" style="stroke: rgb(132, 204, 22);"/>
  <path class="cls-2" d="M852.05,796.23h59.74a1.8,1.8,0,0,1,1.56,2.7l-29.87,51.72a1.79,1.79,0,0,1-3.11,0L850.5,798.93A1.8,1.8,0,0,1,852.05,796.23Z" style="stroke: rgb(132, 204, 22);"/>
  <path class="cls-2" d="M918,910.44h59.74a1.8,1.8,0,0,1,1.56,2.7l-29.87,51.72a1.79,1.79,0,0,1-3.11,0l-29.87-51.72A1.8,1.8,0,0,1,918,910.44Z" style="stroke: rgb(132, 204, 22);"/>
  <path class="cls-2" d="M786.09,910.44h59.74a1.8,1.8,0,0,1,1.55,2.7l-29.86,51.72a1.79,1.79,0,0,1-3.11,0l-29.87-51.72A1.8,1.8,0,0,1,786.09,910.44Z" style="stroke: rgb(132, 204, 22);"/>
  <path class="cls-2" d="M555.23,853.34h125.7a1.8,1.8,0,0,1,1.55,2.7L619.63,964.87a1.79,1.79,0,0,1-3.11,0L553.67,856A1.8,1.8,0,0,1,555.23,853.34Z" style="stroke: rgb(132, 204, 22);"/>
  <path class="cls-2" d="M588.21,796.25H648a1.79,1.79,0,0,1,1.55,2.69l-29.87,51.73a1.8,1.8,0,0,1-3.11,0l-29.87-51.73A1.8,1.8,0,0,1,588.21,796.25Z" style="stroke: rgb(132, 204, 22);"/>
  <path class="cls-2" d="M654.17,910.46h59.74a1.79,1.79,0,0,1,1.55,2.69l-29.87,51.72a1.79,1.79,0,0,1-3.11,0l-29.86-51.72A1.79,1.79,0,0,1,654.17,910.46Z" style="stroke: rgb(132, 204, 22);"/>
  <path class="cls-2" d="M522.25,910.46H582a1.79,1.79,0,0,1,1.55,2.69l-29.87,51.72a1.79,1.79,0,0,1-3.11,0l-29.87-51.72A1.8,1.8,0,0,1,522.25,910.46Z" style="stroke: rgb(132, 204, 22);"/>
  <polygon class="cls-2" points="618.08 739.12 750 510.68 881.92 739.12 618.08 739.12" style="stroke: rgb(132, 204, 22);"/>
  <path class="cls-2" d="M687.15,624.9h125.7a1.79,1.79,0,0,1,1.55,2.69L751.56,736.43a1.8,1.8,0,0,1-3.12,0L685.6,627.59A1.79,1.79,0,0,1,687.15,624.9Z" style="stroke: rgb(132, 204, 22);"/>
  <path class="cls-2" d="M720.13,567.8h59.74a1.8,1.8,0,0,1,1.55,2.7l-29.86,51.72a1.8,1.8,0,0,1-3.12,0L718.58,570.5A1.8,1.8,0,0,1,720.13,567.8Z" style="stroke: rgb(132, 204, 22);"/>
  <path class="cls-2" d="M786.09,682h59.74a1.8,1.8,0,0,1,1.55,2.7l-29.86,51.72a1.79,1.79,0,0,1-3.11,0l-29.87-51.72A1.8,1.8,0,0,1,786.09,682Z" style="stroke: rgb(132, 204, 22);"/>
  <path class="cls-2" d="M654.17,682h59.74a1.8,1.8,0,0,1,1.55,2.7l-29.87,51.72a1.79,1.79,0,0,1-3.11,0l-29.86-51.72A1.8,1.8,0,0,1,654.17,682Z" style="stroke: rgb(132, 204, 22);"/>
  <path class="cls-1" d="M465,1084.51v-59.07a.26.26,0,0,1,.25-.26H477.3a.25.25,0,0,1,.26.24l.56,5.59a.25.25,0,0,0,.41.17,35.58,35.58,0,0,1,9.31-5.24,31.54,31.54,0,0,1,11.32-2q6.4,0,10,2.07a13.89,13.89,0,0,1,5.33,5.45.25.25,0,0,0,.38.08,36.82,36.82,0,0,1,9.31-5.4,34.23,34.23,0,0,1,13-2.2q10.3,0,15.21,5.28t4.9,16.21v39.09a.26.26,0,0,1-.25.26H544a.26.26,0,0,1-.26-.26V1046.8q0-6.9-2.89-9.67t-9.43-2.77a21.79,21.79,0,0,0-8.1,1.51,17.57,17.57,0,0,0-6.51,4.42.26.26,0,0,0-.06.24,16.23,16.23,0,0,1,.47,2.76c.08,1,.12,2.09.12,3.26v38a.26.26,0,0,1-.25.26H505a.26.26,0,0,1-.26-.26v-37.58c0-4.36-.76-7.54-2.26-9.55s-4.36-3-8.55-3a17.78,17.78,0,0,0-8.36,2.07,33.31,33.31,0,0,0-7,4.89.28.28,0,0,0-.08.2v43a.26.26,0,0,1-.26.26H465.22A.26.26,0,0,1,465,1084.51Z" style="fill: rgb(255, 255, 255);"/>
  <path class="cls-1" d="M601.48,1086q-15.59,0-24.13-7.67t-8.55-23.51q0-14.32,7.29-22.63t22.12-8.29q13.57,0,20.43,7.1t6.85,18.29v10.8a.26.26,0,0,1-.26.26H582.16a.26.26,0,0,0-.25.3q1.05,8.43,6.25,11.64t16.09,3.27a51.08,51.08,0,0,0,9.3-.88,46.34,46.34,0,0,0,8-2.13.25.25,0,0,1,.34.24v9.51a.26.26,0,0,1-.15.24,40,40,0,0,1-9.08,2.58A67.69,67.69,0,0,1,601.48,1086Zm-19.35-34.57h31a.26.26,0,0,0,.26-.26v-3.89q0-6.16-3.39-9.62t-11.44-3.46q-9.55,0-13.14,4.15t-3.58,12.81A.27.27,0,0,0,582.13,1051.46Z" style="fill: rgb(255, 255, 255);"/>
  <path class="cls-1" d="M638.81,1084.51v-59.07a.26.26,0,0,1,.26-.26h12.08a.27.27,0,0,1,.26.24L652,1031a.25.25,0,0,0,.41.17,35.58,35.58,0,0,1,9.31-5.24,31.54,31.54,0,0,1,11.32-2q6.4,0,10,2.07a13.8,13.8,0,0,1,5.32,5.45.25.25,0,0,0,.38.08,36.89,36.89,0,0,1,9.32-5.4,34.23,34.23,0,0,1,13-2.2q10.31,0,15.21,5.28t4.9,16.21v39.09a.26.26,0,0,1-.26.26H717.89a.26.26,0,0,1-.26-.26V1046.8q0-6.9-2.89-9.67t-9.43-2.77a21.88,21.88,0,0,0-8.11,1.51,17.53,17.53,0,0,0-6.5,4.42.26.26,0,0,0-.06.24,16.23,16.23,0,0,1,.47,2.76c.08,1,.12,2.09.12,3.26v38a.26.26,0,0,1-.26.26H678.79a.26.26,0,0,1-.25-.26v-37.58q0-6.54-2.27-9.55t-8.54-3a17.78,17.78,0,0,0-8.36,2.07,33.31,33.31,0,0,0-7,4.89.25.25,0,0,0-.09.2v43a.26.26,0,0,1-.25.26H639.07A.26.26,0,0,1,638.81,1084.51Z" style="fill: rgb(255, 255, 255);"/>
  <path class="cls-1" d="M773.69,1086q-16.08,0-23.57-8t-7.47-23q0-15,7.54-23t23.5-8q16.09,0,23.64,8t7.54,23q0,15-7.48,23T773.69,1086Zm0-11.57q9.43,0,13.39-4.59t4-14.89q0-10.31-4-14.84t-13.39-4.52q-9.3,0-13.26,4.52t-4,14.84q0,10.3,4,14.89T773.69,1074.46Z" style="fill: rgb(255, 255, 255);"/>
  <path class="cls-1" d="M821.84,1084.51v-48.64a.26.26,0,0,0-.26-.25H814.3a.26.26,0,0,1-.25-.26v-9.92a.26.26,0,0,1,.25-.26h21a.26.26,0,0,1,.26.26v59.07a.26.26,0,0,1-.26.26H822.1A.26.26,0,0,1,821.84,1084.51Zm-1.13-72v-10.8a.25.25,0,0,1,.26-.25h14.44a.26.26,0,0,1,.26.25v10.8a.26.26,0,0,1-.26.26H821A.26.26,0,0,1,820.71,1012.48Z" style="fill: rgb(255, 255, 255);"/>
  <path class="cls-1" d="M849,1084.51v-6.82a.25.25,0,0,1,.06-.16l32.17-40.74a.26.26,0,0,0-.2-.42H850.76a.26.26,0,0,1-.26-.26v-10.67a.26.26,0,0,1,.26-.26h47.38a.26.26,0,0,1,.25.26v8.08a.33.33,0,0,1,0,.16l-31.55,40.11a.26.26,0,0,0,.2.42h32a.25.25,0,0,1,.25.26v10a.26.26,0,0,1-.25.26H849.25A.26.26,0,0,1,849,1084.51Z" style="fill: rgb(255, 255, 255);"/>
  <path class="cls-1" d="M940.38,1086q-15.58,0-24.14-7.67t-8.54-23.51q0-14.32,7.29-22.63t22.12-8.29q13.57,0,20.43,7.1t6.85,18.29v10.8a.26.26,0,0,1-.26.26H921.06a.26.26,0,0,0-.25.3q1.05,8.43,6.25,11.64t16.09,3.27a51.08,51.08,0,0,0,9.3-.88,46.34,46.34,0,0,0,7.95-2.13.25.25,0,0,1,.34.24v9.51a.26.26,0,0,1-.15.24,39.94,39.94,0,0,1-9.09,2.58A67.47,67.47,0,0,1,940.38,1086ZM921,1051.46h31a.26.26,0,0,0,.26-.26v-3.89q0-6.16-3.39-9.62t-11.44-3.46q-9.56,0-13.14,4.15t-3.58,12.81A.27.27,0,0,0,921,1051.46Z" style="fill: rgb(255, 255, 255);"/>
  <path class="cls-1" d="M1002.35,1086a34.39,34.39,0,0,1-14.2-2.77,19.86,19.86,0,0,1-9.56-9.18q-3.39-6.4-3.39-17.22t3.64-18A25.67,25.67,0,0,1,989,1027.7a28.52,28.52,0,0,1,14.65-3.77,34,34,0,0,1,9.62,1.25,29.43,29.43,0,0,1,7.71,3.64.25.25,0,0,0,.39-.21V1000.3a.26.26,0,0,1,.26-.26h13.19a.26.26,0,0,1,.25.26v84.21a.26.26,0,0,1-.25.26h-11.21a.27.27,0,0,1-.26-.22l-.78-5.22a.25.25,0,0,0-.42-.16,26.86,26.86,0,0,1-8.44,5.1A32.87,32.87,0,0,1,1002.35,1086Zm3.65-10.31a20.61,20.61,0,0,0,15.26-6.21.26.26,0,0,0,.07-.19v-29.56a.25.25,0,0,0-.09-.2q-5.88-5.2-14.74-5.2-8.67,0-13.07,5.78T989,1057q0,10.68,4.08,14.7T1006,1075.72Z" style="fill: rgb(255, 255, 255);"/>
</svg>