<svg xmlns="http://www.w3.org/2000/svg" id="Layer_1" data-name="Layer 1" viewBox="121.56999206542969 604.7899780273438 1258.6297149658203 216.224365234375" class="h-7"><defs><style>
            .cls-1{fill:#84cc16;}
            .cls-2{fill:none;stroke:#84cc16;stroke-linecap:round;stroke-linejoin:round;}
          </style></defs><path d="M260.32 631.48h-30.83l15.41-26.69 15.42 26.69zM244.9 658.19h-30.83l15.42-26.7 15.41 26.7zM275.74 658.19H244.9l15.42-26.7 15.42 26.7z" class="cls-1"></path><path d="M229.49 684.89h-30.84l15.42-26.7 15.42 26.7z" class="cls-1"></path><path d="M214.07 711.57h-30.83l15.41-26.69 15.42 26.69zM244.9 711.57h-30.83l15.42-26.69 15.41 26.69zM291.15 684.89h-30.83l15.42-26.7 15.41 26.7z" class="cls-1"></path><path d="M275.74 711.57H244.9l15.42-26.69 15.42 26.69zM306.57 711.57h-30.83l15.41-26.69 15.42 26.69zM198.65 738.27h-30.83l15.42-26.69 15.41 26.69z" class="cls-1"></path><path d="M183.24 764.96H152.4l15.42-26.7 15.42 26.7zM214.07 764.96h-30.83l15.41-26.7 15.42 26.7zM167.82 791.66h-30.83l15.41-26.69 15.42 26.69z" class="cls-1"></path><path d="M152.4 818.35h-30.83l15.42-26.7 15.41 26.7zM183.24 818.35H152.4l15.42-26.7 15.42 26.7zM229.49 791.66h-30.84l15.42-26.69 15.42 26.69z" class="cls-1"></path><path d="M214.07 818.35h-30.83l15.41-26.7 15.42 26.7zM244.9 818.35h-30.83l15.42-26.7 15.41 26.7zM291.15 791.66h-30.83l15.42-26.69 15.41 26.69z" class="cls-1"></path><path d="M275.74 818.35H244.9l15.42-26.7 15.42 26.7zM306.57 818.35h-30.83l15.41-26.7 15.42 26.7zM352.82 791.66h-30.84l15.42-26.69 15.42 26.69z" class="cls-1"></path><path d="M337.4 818.35h-30.83l15.41-26.7 15.42 26.7z" class="cls-1"></path><path d="M368.23 818.35H337.4l15.42-26.7 15.41 26.7zM321.98 738.28h-30.83l15.42-26.69 15.41 26.69z" class="cls-1"></path><path d="M306.57 764.97h-30.83l15.41-26.7 15.42 26.7z" class="cls-1"></path><path d="M337.4 764.97h-30.83l15.41-26.7 15.42 26.7z" class="cls-1"></path><path d="m244.9 818.37 61.67-106.79 61.66 106.79H244.9zM121.57 818.37l61.67-106.79 61.66 106.79H121.57z" class="cls-2"></path><path d="M277.19 765H336a.84.84 0 0 1 .72 1.26l-29.38 50.88a.84.84 0 0 1-1.45 0l-29.38-50.88a.84.84 0 0 1 .68-1.26ZM292.61 738.29h27.92a.83.83 0 0 1 .73 1.25l-14 24.18a.84.84 0 0 1-1.45 0l-14-24.18a.83.83 0 0 1 .8-1.25ZM323.44 791.67h27.92a.84.84 0 0 1 .73 1.26l-14 24.18a.84.84 0 0 1-1.46 0l-14-24.18a.84.84 0 0 1 .81-1.26ZM261.77 791.67h27.93a.84.84 0 0 1 .72 1.26l-14 24.18a.84.84 0 0 1-1.45 0l-14-24.18a.84.84 0 0 1 .8-1.26ZM153.86 765h58.75a.84.84 0 0 1 .73 1.26L184 817.12a.84.84 0 0 1-1.45 0l-29.38-50.88a.84.84 0 0 1 .69-1.24ZM169.27 738.29h27.93a.84.84 0 0 1 .73 1.26l-14 24.18a.84.84 0 0 1-1.45 0l-14-24.18a.84.84 0 0 1 .79-1.26ZM200.11 791.68H228a.84.84 0 0 1 .73 1.26l-14 24.18a.85.85 0 0 1-1.46 0l-14-24.18a.84.84 0 0 1 .84-1.26ZM138.44 791.68h27.93a.84.84 0 0 1 .72 1.26l-14 24.18a.84.84 0 0 1-1.45 0l-14-24.18a.84.84 0 0 1 .8-1.26ZM183.24 711.59 244.9 604.8l61.67 106.79H183.24z" class="cls-2"></path><path d="M215.52 658.2h58.76a.84.84 0 0 1 .73 1.26l-29.38 50.87a.84.84 0 0 1-1.46 0l-29.37-50.87a.84.84 0 0 1 .72-1.26ZM230.94 631.51h27.92a.84.84 0 0 1 .73 1.26l-14 24.17a.84.84 0 0 1-1.46 0l-14-24.17a.84.84 0 0 1 .81-1.26ZM261.77 684.89h27.93a.84.84 0 0 1 .72 1.26l-14 24.18a.84.84 0 0 1-1.45 0l-14-24.18a.84.84 0 0 1 .8-1.26ZM200.11 684.89H228a.84.84 0 0 1 .73 1.26l-14 24.18a.84.84 0 0 1-1.46 0l-14-24.18a.84.84 0 0 1 .84-1.26Z" class="cls-2"></path><path d="M392.67 818.35V716a.45.45 0 0 1 .45-.45H414a.45.45 0 0 1 .45.4l1 9.69a.45.45 0 0 0 .72.3 61.78 61.78 0 0 1 16.13-9.08 54.66 54.66 0 0 1 19.6-3.49q11.1 0 17.31 3.6a23.93 23.93 0 0 1 9.23 9.44.43.43 0 0 0 .65.13 64.53 64.53 0 0 1 16.14-9.36q9.36-3.81 22.43-3.81 17.87 0 26.35 9.15t8.49 28.09v67.71a.44.44 0 0 1-.44.45h-22.41a.45.45 0 0 1-.45-.45V753q0-12-5-16.76t-16.34-4.79a38.06 38.06 0 0 0-14 2.61 30.34 30.34 0 0 0-11.27 7.66.45.45 0 0 0-.1.42 27.94 27.94 0 0 1 .81 4.77c.14 1.74.22 3.63.22 5.66v65.75a.45.45 0 0 1-.45.45h-21.1a.45.45 0 0 1-.45-.45v-65.1q0-11.31-3.92-16.55t-14.81-5.22a30.74 30.74 0 0 0-14.48 3.59 57.32 57.32 0 0 0-12.15 8.47.41.41 0 0 0-.15.33v74.48a.45.45 0 0 1-.45.45h-22.4a.45.45 0 0 1-.49-.42ZM629.16 821q-27 0-41.81-13.29T572.54 767q0-24.83 12.63-39.2t38.32-14.37q23.52 0 35.39 12.31t11.87 31.68v18.72a.45.45 0 0 1-.45.44h-74.61a.45.45 0 0 0-.44.51q1.83 14.61 10.82 20.18 9.15 5.67 27.88 5.66a88.56 88.56 0 0 0 16.11-1.52 80.52 80.52 0 0 0 13.78-3.69.43.43 0 0 1 .59.41v16.48a.46.46 0 0 1-.27.42 68.5 68.5 0 0 1-15.73 4.45 115.52 115.52 0 0 1-19.27 1.52Zm-33.52-59.89h53.76a.44.44 0 0 0 .44-.44v-6.74q0-10.68-5.88-16.66t-19.81-6q-16.56 0-22.76 7.18t-6.2 22.2a.45.45 0 0 0 .45.44ZM693.83 818.35V716a.45.45 0 0 1 .44-.45h20.93a.44.44 0 0 1 .44.4l1 9.69a.44.44 0 0 0 .71.3 61.67 61.67 0 0 1 16.14-9.08 54.66 54.66 0 0 1 19.6-3.49q11.1 0 17.31 3.6a23.84 23.84 0 0 1 9.22 9.44.44.44 0 0 0 .66.13 64.53 64.53 0 0 1 16.14-9.36q9.36-3.81 22.43-3.81 17.85 0 26.35 9.15t8.49 28.09v67.71a.45.45 0 0 1-.44.45h-22.44a.45.45 0 0 1-.45-.45V753q0-12-5-16.76T809 731.48a38 38 0 0 0-14 2.61 30.26 30.26 0 0 0-11.27 7.66.45.45 0 0 0-.1.42 27.94 27.94 0 0 1 .81 4.77c.14 1.74.21 3.63.21 5.66v65.75a.45.45 0 0 1-.44.45h-21.1a.45.45 0 0 1-.45-.45v-65.1q0-11.31-3.92-16.55t-14.81-5.22a30.71 30.71 0 0 0-14.48 3.59 57.64 57.64 0 0 0-12.16 8.47.44.44 0 0 0-.14.33v74.48a.45.45 0 0 1-.45.45h-22.43a.45.45 0 0 1-.44-.45ZM927.48 821q-27.87 0-40.83-13.94t-12.95-39.87q0-25.92 13.06-39.85t40.72-13.94q27.87 0 40.94 13.94t13.07 39.85q0 25.92-13 39.85T927.48 821Zm0-20q16.34 0 23.19-8t6.86-25.8q0-17.85-6.86-25.7t-23.19-7.84q-16.11 0-23 7.84t-6.86 25.7q0 17.85 6.86 25.8t23 7.94ZM1010.89 818.35V734.1a.45.45 0 0 0-.45-.45h-12.61a.45.45 0 0 1-.45-.44V716a.45.45 0 0 1 .45-.45h36.35a.45.45 0 0 1 .44.45v102.35a.45.45 0 0 1-.44.45h-22.85a.45.45 0 0 1-.44-.45Zm-2-124.77v-18.71a.45.45 0 0 1 .44-.45h25a.45.45 0 0 1 .45.45v18.71a.45.45 0 0 1-.45.44h-25a.44.44 0 0 1-.4-.44ZM1057.92 818.35v-11.81a.42.42 0 0 1 .1-.28l55.73-70.58a.45.45 0 0 0-.35-.72H1061a.45.45 0 0 1-.45-.45V716a.45.45 0 0 1 .45-.45h82.07a.45.45 0 0 1 .45.45v14a.39.39 0 0 1-.1.27l-54.64 69.49a.45.45 0 0 0 .35.73h55.47a.44.44 0 0 1 .44.44v17.4a.45.45 0 0 1-.44.45h-86.21a.45.45 0 0 1-.47-.43ZM1216.23 821q-27 0-41.81-13.29t-14.8-40.71q0-24.83 12.63-39.2t38.32-14.37q23.52 0 35.39 12.31t11.87 31.68v18.72a.45.45 0 0 1-.45.44h-74.61a.46.46 0 0 0-.45.51q1.85 14.61 10.83 20.18 9.15 5.67 27.87 5.66a88.58 88.58 0 0 0 16.12-1.52 80.14 80.14 0 0 0 13.77-3.69.44.44 0 0 1 .6.41v16.48a.46.46 0 0 1-.27.42 68.44 68.44 0 0 1-15.74 4.45 115.35 115.35 0 0 1-19.27 1.52Zm-33.52-59.89h53.76a.45.45 0 0 0 .45-.44v-6.74q0-10.68-5.88-16.66t-19.82-6q-16.54 0-22.75 7.18t-6.21 22.2a.46.46 0 0 0 .45.44ZM1323.59 821q-14 0-24.61-4.79a34.44 34.44 0 0 1-16.55-15.9q-5.88-11.12-5.88-29.83 0-18.51 6.32-31.25a44.3 44.3 0 0 1 17.53-19.27 49.39 49.39 0 0 1 25.36-6.54 58.35 58.35 0 0 1 16.66 2.18 50.93 50.93 0 0 1 13.36 6.29.44.44 0 0 0 .69-.36v-49a.44.44 0 0 1 .44-.44h22.85a.44.44 0 0 1 .44.44v145.82a.45.45 0 0 1-.44.45h-19.42a.44.44 0 0 1-.44-.38l-1.35-9a.44.44 0 0 0-.73-.26 46.44 46.44 0 0 1-14.63 8.82 56.83 56.83 0 0 1-19.6 3.02Zm6.31-17.86q15.8 0 26.44-10.75a.51.51 0 0 0 .13-.33v-51.23a.44.44 0 0 0-.16-.34q-10.2-9-25.54-9-15 0-22.64 10t-7.63 29.18q0 18.51 7.08 25.48t22.32 6.97Z" class="fill-black dark:fill-white"></path></svg>